<?xml version="1.0" encoding="UTF-8"?>
<svg id="Capa_1" data-name="Capa 1" xmlns="http://www.w3.org/2000/svg" viewBox="0 0 785 241.45">
  <defs>
    <style>
      .cls-1 {
        fill: #64bfb5;
      }

      .cls-1, .cls-2 {
        stroke-width: 0px;
      }

      .cls-2 {
        fill: #ecc258;
      }

      .cls-3 {
        fill: #ee8027;
        font-family: Bauhaus93, 'Bauhaus 93';
        font-size: 124.83px;
      }
    </style>
  </defs>
  <text class="cls-3" transform="translate(316.96 185.14)"><tspan x="0" y="0">MOICA</tspan></text>
  <g>
    <path class="cls-2" d="m202.69,136.89c-.25.21-.5.42-.75.63-4.61,1.79-9.58,1.88-14.34,3.18-12.54,3.42-23.97,8.98-34.64,16.27-1.54,1.05-2.89,2.78-5.17,2.18-2.59-5.64-5.16-11.3-7.79-16.92-1.31-2.8.9-2.12,2.16-2.2,10.59-.67,20.79-2.94,30.42-7.45,5.98-2.8,10.85-6.81,11.67-13.87.7-6.01-1.99-11.08-5.55-15.67-11.31-14.6-26.76-22.01-44.48-25.41-2.52-.48-5.07-.95-7.63-1.1-2.22-.13-1.82-1.03-1.13-2.39,6.76-13.4,13.56-26.77,20.19-40.23,1.08-2.18,2.4-1.63,3.91-1.12,7.76,2.56,14.57,6.79,20.66,12.15,4.74,4.17,9.35,8.5,12.8,13.88,0,2.42-2.09,2.78-3.66,3.48-1.85.83-2.73,2-2.26,4,3.58,15.34,9.31,29.57,20.95,40.79,2.46,2.37,5.84,3.62,7.84,6.54.14.15.3.28.48.37,1.53,1.85.91,4.07.94,6.13.08,4.61-.89,9.06-2.36,13.41-.45,1.33-1.03,2.56-2.26,3.35Z"/>
    <path class="cls-1" d="m245.11,189.93c-5.11-7.09-8.96-14.85-12.32-22.88-3.46-8.27-5.08-17.02-6.66-25.77-.33-.41-.66-.82-1-1.23-3-1.27-7.55-2.91-13.26-3.85-23.53-3.88-42.7,8.05-53.94,15.04,0,0-28.57,17.75-36.81,43.09-.16.49-.21.99-.21.99,0,0,0,0,0,0-.13.67.06,1.47.06,1.5.24,1.28,42.71,22.57,43.47,21.68.43-.51.68-1.12.68-1.12s0,0,0,0c.13-.32.23-.7.26-1.16.21-2.77.67-5.53,1.22-8.26,3.54-17.74,11.47-32.92,26.3-43.83,4.53-3.33,9.64-5.62,15.6-4.35,6.56,1.39,10.06,6.2,12.7,11.72,4.44,9.3,6.51,19.22,7.17,29.47.05.74-.07,2.08.82,2.88,2.74,2.5,11.62-2.81,18.69-7.68.17-.3.26-.62.24-.97-.46-2.07-1.82-3.64-3-5.27Z"/>
    <path class="cls-1" d="m201.13,201.51c-5.33-.07-8.9-2.78-10.35-7.71-1.97-6.65.71-14.45,6.47-18.12,4.02-2.56,8.37-2.89,12.41-.08,3.82,2.66,5.3,6.78,4.97,11.24-.33,4.33-1.88,8.33-5.31,11.37-2.42,2.15-5.06,3.58-8.18,3.29Z"/>
    <path class="cls-2" d="m278.01,153.71c-5.65-.56-10.46-2.43-13.61-7.41-4.6-7.28-.93-15.76,7.59-17.06,5.58-.85,10.62.61,14.6,4.89,3.72,4,4.76,8.67,2.68,12.96-2.27,4.7-6.54,6.14-11.26,6.62Z"/>
    <path class="cls-2" d="m156.61,125.95c-3.27-.11-7.14-1.43-10.29-4.47-3.36-3.25-5.19-7.14-3.87-11.85,1.46-5.22,5.56-7.33,10.54-8.03,6.14-.87,13.84,3.78,16,9.56,2.82,7.54-2.69,14.73-12.39,14.79Z"/>
    <path class="cls-1" d="m217.83,68.84c.13-5.35,2.14-9.78,6.55-12.94,6.78-4.86,15.04-1.84,17.13,6.24,1.68,6.47-1.55,14.17-7.4,17.39-3.5,1.93-7.14,2.21-10.71.19-3.67-2.07-5.67-6.09-5.57-10.87Z"/>
    <path class="cls-2" d="m304.27,178.13c-8.72-.74-17.05-2.97-25.04-6.5-10.8-4.78-20.07-11.52-26.85-21.32-2.9-4.19-5.05-8.81-4.3-14.12.96-6.88,5.6-10.85,11.49-13.61,9.72-4.55,20.02-6.78,30.69-7.46,1.61-.1,3.14-.02,1.99-2.47-2.68-5.71-5.24-11.48-7.84-17.23-.3-.17-.63-.24-.98-.19-4.01,2.88-8.52,5.78-13.56,8.52-15,8.17-29.32,12.1-40.58,14.06l-.65.74c-1.66,5.93-3.45,14.94-2.78,25.88.97,15.89,6.6,27.07,10.75,35.1,0,0,15.28,29.56,45.6,42.72.47.2,1.77.76,3,.27.74-.3,1.33-1,1.92-2.2,6.31-12.87,12.81-25.66,19.25-38.47,1.61-3.2,1.54-3.41-2.11-3.72Z"/>
    <path class="cls-1" d="m309.64,57.08c-13.33-6.61-26.63-13.3-39.91-20.02-1.87-.94-2.54-.77-2.73,1.51-.86,10.47-3.69,20.43-8.45,29.78-5.05,9.91-11.9,18.32-21.48,24.23-8.64,5.32-17.34,4.05-22.96-3.26-1.84-2.39-3.22-5.06-4.34-7.86-3.48-8.72-5.6-17.74-6.12-27.13-.05-.88.17-2.16-.64-3-.89-.92-2.8-1.23-15.99,4.48-6.98,3.02-9.55,4.46-10.45,7.29-.2.61-.23,1.51-.06,4.24.25,3.89,1.26,7.13,4.08,13.47,2.48,5.57,3.72,8.36,5.76,11.78,5.84,9.78,13.38,16.86,19.16,21.42,2.74,1.59,6.59,3.32,11.37,4.08,5.64.89,10.4.09,12.75-.36.26-.05.52-.1.78-.15,3.7-.38,7.6-.99,11.66-1.89,18.48-4.11,32.61-12.67,42.2-20.06,3.91-3.4,6.98-6.37,9.08-8.48,0,0,12.17-9.92,17.51-26.56.55-1.71.55-2.63-1.24-3.52Z"/>
  </g>
</svg>